<?xml version="1.0" encoding="UTF-8"?>
<svg id="Layer_2" data-name="Layer 2" xmlns="http://www.w3.org/2000/svg" viewBox="0 0 1422 340">
  <defs>
    <style>
      .cls-1 {
        fill: #fff;
      }
    </style>
  </defs>
  <g id="Layer_1-2" data-name="Layer 1">
    <g>
      <path class="cls-1" d="m0,303V0C410.83,0,821.67,0,1232.5,0c1.02.25,2.04.5,3.06.75-1.38.23-2.76.18-4.14.24-10.84.4-21.58,1.73-32.26,3.56-15.16,2.6-29.9,6.64-43.93,13.04-15.7,7.16-29.35,17.03-40.16,30.62-9.06,11.38-15.11,24.26-19.1,38.17-4.42,15.41-5.99,31.21-6.26,47.16-.14,8.58.3,17.15,1.19,25.7,1.25,11.97,3.59,23.7,7.62,35.06,7.81,22.01,21.26,39.61,40.85,52.45,13.75,9.01,28.87,14.75,44.72,18.72,18.58,4.65,37.54,6.62,56.63,7.37,14.58.57,29.15.35,43.71-.71,10.98-.8,21.88-2.08,32.69-4.15,16.1-3.08,31.68-7.77,46.29-15.37,17.62-9.17,31.95-21.88,42.07-39.12,7.57-12.88,12.02-26.85,14.51-41.5.3-1.76.54-3.52.78-5.09-2.92.43-5.61,1.16-8.29,1.17-41.83.08-83.66.06-125.49.06-4.59,0-6.47-1.87-6.5-6.55-.02-3.33.03-6.67.04-10,0-.64-.09-1.27-.15-2.1h-37.86c-6.33,0-12.67,0-19,0-6.3,0-12.59,0-18.8,0-.27-1.09-.41-1.83-.64-2.54-.96-2.97-2.98-4.8-6.1-5.17-3.55-.42-6.9-.15-9.82,2.46-2.73,2.45-6.12,2.56-9.42,1.36-3.64-1.33-5.85-4.03-6.33-7.96-.54-4.44,1.15-7.87,5.02-10.06,3.61-2.05,7.32-1.77,10.57.68,2.09,1.57,4.23,2.11,6.72,2.11,6.42,0,8.02-1.11,10.04-7.26,6.28,0,12.6,0,18.93,0h18.75c6.33,0,12.67.02,19,0,6.29-.03,12.59.12,19.01-.1,0-3.79-.02-7.28.01-10.77,0-1.16,0-2.35.25-3.48.59-2.75,2.29-4.1,5.12-4.19,1.58-.05,3.17,0,4.75,0,40.33,0,80.66,0,120.99-.04,2.87,0,5.65.19,8.3,1.36.18.08.44-.04.78-.08-.1-1.05-.12-2.05-.29-3.02-1.41-8.13-3.19-16.17-5.93-23.97-6.58-18.69-17.31-34.43-32.97-46.71-9.58-7.52-20.19-13.21-31.5-17.63-12.07-4.71-24.55-7.89-37.31-10.03-10.77-1.81-21.58-3.18-32.51-3.46-.92-.02-1.84-.09-2.76-.13l.02-.18c1.19-.22,2.38-.44,3.58-.66,47,0,94,0,141,0v340h-14c.17-.79.47-1.58.49-2.37.06-1.99.12-4-.05-5.99-.23-2.86.58-5.34,1.96-7.82,3.52-6.32,6.89-12.73,10.29-19.11.4-.74.63-1.57,1.05-2.63-2.53,0-4.61.1-6.68-.03-1.79-.12-2.87.44-3.71,2.13-2,4.02-4.23,7.92-6.39,11.86-.37.68-.84,1.32-1.39,2.17-.38-.61-.61-.94-.81-1.29-2.42-4.36-4.81-8.74-7.27-13.08-.38-.67-1.05-1.6-1.64-1.64-2.77-.17-5.55-.08-8.78-.08.63,1.25,1,2.05,1.42,2.83,3.75,6.95,7.48,13.92,11.3,20.84.84,1.52,1.23,3.02,1.2,4.74-.07,3.16,0,6.32,0,9.48h-39c.14-.81.4-1.62.4-2.43.03-11.16.02-22.33,0-33.49,0-.63-.14-1.26-.21-1.82h-8.87v21.99c-1.02-.55-1.56-1.25-2.09-1.96-4.65-6.2-9.28-12.41-13.97-18.57-.51-.67-1.34-1.49-2.07-1.55-2.38-.2-4.78-.07-7.35-.07-.06,1.05-.13,1.87-.14,2.68-.01,10.66-.03,21.33-.01,31.99,0,1.08.2,2.15.3,3.23h-25c-.3-.86-.56-1.74-.91-2.58-4.73-11.27-9.48-22.53-14.23-33.79-.22-.52-.54-.99-.81-1.46h-9.47c-.38.83-.77,1.65-1.13,2.48-4.46,10.3-8.92,20.6-13.35,30.92-.62,1.44-1.07,2.96-1.6,4.44h-41.5v-10.63c1.1-.06,1.91-.13,2.72-.15,2.16-.06,4.33-.02,6.49-.18,8.34-.63,13.25-6.46,12.63-14.83-.43-5.77-3.75-10.33-9.99-11.41-7.02-1.21-14.08-.54-21.21-.73-.09.66-.2,1.05-.2,1.45.02,12.16.04,24.32.07,36.48h-29.5c.17-.87.49-1.75.49-2.62.03-11.07,0-22.15-.01-33.22,0-.63-.12-1.26-.19-1.93h-10.04c-3.34,7.29-6.62,14.46-10.07,22-.52-1-.88-1.62-1.17-2.28-2.77-6.05-5.52-12.11-8.3-18.16-.33-.73-.51-1.67-1.6-1.67-3.14-.01-6.28,0-9.5,0-.09.64-.19,1.04-.19,1.43.02,12.15.04,24.31.07,36.46h-42.5c1.11-.35,2.22-.69,3.32-1.05,7.42-2.47,12.27-8.81,12.83-16.8.54-7.68-3.36-14.52-10.29-17.94-4.73-2.33-9.72-2.74-14.86-1.72-8.85,1.76-15.14,9.25-15.27,18.22-.13,8.88,5.81,16.55,14.44,18.68.63.15,1.23.41,1.84.62h-50.5c.76-.29,1.52-.6,2.29-.86,3.52-1.18,6.63-2.98,9.48-5.88-1.89-1.99-3.64-3.84-5.34-5.62-1.94,1.14-3.64,2.38-5.53,3.19-5.58,2.4-11.72-.26-13.74-5.8-2.24-6.16.59-12.65,6.4-14.5,3.91-1.24,7.38-.13,10.51,2.32.71.55,1.36,1.18,2.17,1.88,1.49-1.74,2.89-3.37,4.29-5.01.37-.44.7-.91,1.03-1.34-2.36-2.77-5.21-4.45-9.32-5.6-12.82-3.59-27.3,5.17-25.4,20.91.88,7.33,6.43,13.83,13.58,15.64.71.18,1.39.45,2.08.68h-90c.54-.18,1.09-.33,1.61-.56,1.82-.8,3.81-1.36,5.39-2.49,6.32-4.51,5.63-13.75-1.23-17.36-1.68-.88-3.52-1.48-5.32-2.11-1.72-.6-3.53-.99-5.23-1.65-1.06-.41-2.12-1.03-2.94-1.81-1.29-1.23-1.06-3.01.57-3.7,1.23-.52,2.81-.86,4.07-.57,2.9.65,5.7,1.72,8.53,2.66.68.23,1.32.59,2.18.98,1.19-2.49,2.32-4.86,3.4-7.11-.26-.35-.33-.53-.45-.61-5.73-3.49-12-4.26-18.52-3.43-2.32.29-4.47,1.22-6.42,2.6-5.33,3.77-6.32,13.17,1.2,16.99,1.25.64,2.59,1.14,3.93,1.58,1.81.6,3.68,1.03,5.5,1.62,1.1.36,2.21.77,3.21,1.34,1.4.79,1.9,1.99,1.62,3.34-.3,1.43-1.38,2.04-2.67,2.28-.89.17-1.82.19-2.73.16-4.07-.11-7.53-1.9-10.85-4.03-.61-.39-1.2-.79-2.01-1.32-1.27,2.52-2.45,4.86-3.66,7.27,3.3,2.43,6.57,4.15,10.27,5.03,1.03.24,2.04.6,3.06.9h-48c.85-.3,1.73-.51,2.53-.91,1.7-.84,3.55-1.54,4.98-2.72,5.24-4.33,4.69-12.65-1.07-16.23-1.81-1.12-3.91-1.81-5.93-2.57-1.63-.61-3.37-.94-5-1.54-1.08-.4-2.18-.9-3.07-1.61-1.83-1.47-1.41-3.76.83-4.39,1.16-.33,2.53-.51,3.66-.22,2.81.71,5.54,1.72,8.29,2.64.68.23,1.33.55,2.19.9,1.21-2.49,2.36-4.84,3.44-7.05-.35-.42-.43-.59-.57-.67-5.61-3.31-11.71-4.16-18.06-3.43-2.49.29-4.8,1.24-6.91,2.69-4.77,3.28-6.31,12.43.55,16.49,1.63.96,3.47,1.58,5.27,2.21,2.04.71,4.16,1.19,6.19,1.91.99.35,1.99.91,2.75,1.62,1.48,1.38,1.21,3.48-.6,4.36-1,.48-2.23.66-3.36.68-4.34.05-8.06-1.78-11.58-4.09-.59-.39-1.19-.77-1.95-1.26-1.24,2.47-2.38,4.75-3.6,7.17.76.59,1.36,1.16,2.05,1.59,2.7,1.69,5.56,2.99,8.69,3.66.78.17,1.52.52,2.28.79h-38c.66-2.54.25-5.08.26-7.95h-20.1v-7.28h17.6v-7.72h-17.62v-7.24h19.73c0-2.77.18-5.2-.08-7.6h-29.29v37.78h-29c.14-.81.4-1.62.4-2.43.03-11.16.02-22.31,0-33.47,0-.63-.14-1.26-.21-1.87h-8.88c0,1.95,0,3.76,0,5.57,0,1.83-.05,3.66-.05,5.49,0,1.91.1,3.83.03,5.74-.06,1.73.34,3.53-.46,5.5-.69-.87-1.21-1.51-1.7-2.16-4.65-6.19-9.29-12.39-13.93-18.58-.6-.8-1.12-1.7-2.3-1.7-2.3,0-4.61,0-7.07,0-.06,1.08-.13,1.9-.13,2.71-.01,10.66-.03,21.31-.01,31.97,0,1.07.2,2.15.3,3.22h-29.5c.11-.82.33-1.63.33-2.45.02-11.14.02-22.27,0-33.41,0-.63-.14-1.26-.22-1.89h-9.13c-.07.65-.17,1.13-.17,1.62-.02,9.56-.05,19.11-.03,28.67,0,2.49.14,4.98.21,7.46h-38c.63-.2,1.28-.34,1.88-.6,1.81-.8,3.76-1.43,5.38-2.53,5.32-3.62,5.89-12.9-.45-16.78-1.06-.65-2.19-1.23-3.35-1.64-2.43-.85-4.93-1.51-7.36-2.36-1.16-.41-2.37-.9-3.32-1.65-1.87-1.47-1.46-3.75.79-4.39,1.23-.35,2.63-.4,3.91-.26,3.59.41,6.83,1.94,10.21,3.73,1.2-2.52,2.34-4.89,3.56-7.45-.91-.55-1.64-1.07-2.44-1.47-5.1-2.5-10.53-3.05-16.08-2.46-2.85.3-5.45,1.4-7.71,3.28-4.41,3.67-5.37,12.36,1.45,16.12,1.87,1.03,3.98,1.66,6.02,2.37,1.8.63,3.7,1.02,5.48,1.71.97.38,1.96,1.01,2.64,1.79,1.31,1.51.76,3.58-1.12,4.25-1.07.38-2.28.52-3.42.49-4.13-.11-7.74-1.79-11.12-4.02-.6-.4-1.2-.8-2.05-1.37-1.27,2.5-2.45,4.83-3.67,7.22,3.3,2.61,6.7,4.24,10.47,5.15.95.23,1.88.58,2.81.88h-51c.52-.23,1.02-.51,1.55-.68,6.33-1.9,9.96-6.08,10.77-12.66.12-.99.16-1.99.16-2.99.01-6.5.01-13,0-19.5,0-.63-.12-1.27-.18-1.94h-9.21c-.04.95-.11,1.76-.11,2.58,0,6,.02,12-.01,18,0,1.24-.07,2.51-.35,3.71-.92,3.88-3.82,5.82-8.02,5.52-3.6-.26-6.32-2.93-6.69-6.58-.07-.74-.08-1.5-.08-2.25,0-6.17,0-12.33,0-18.5,0-.8-.08-1.6-.12-2.47h-9.1c-.12.38-.26.61-.26.84,0,7.66-.17,15.33.05,22.99.18,6.35,4.38,11.29,10.53,13.09.87.25,1.72.55,2.58.83h-52.5c.62-.17,1.24-.33,1.86-.52,1.98-.58,4.08-.92,5.91-1.81,3.3-1.6,5.21-4.35,5.23-8.14.02-3.88-1.56-6.91-5.02-8.84-.5-.28-1-.56-1.66-.93.61-.41,1.07-.72,1.53-1.03,5.5-3.67,5.17-11.52-.73-14.52-1.81-.92-3.93-1.57-5.94-1.67-6.55-.32-13.12-.34-19.69-.45-.31,0-.62.14-1.02.23-.06.62-.15,1.19-.15,1.75-.02,9.4-.05,18.8-.03,28.19,0,2.57.14,5.15.21,7.72h-71.5c.93-.32,1.86-.66,2.8-.97,3.46-1.14,6.39-3.09,9.17-5.71-1.98-2.09-3.78-4-5.57-5.89-7.24,6.31-13.42,4.64-16.77,1.18-3.97-4.1-4.09-11.04-.26-15.26,1.69-1.87,3.79-2.98,6.29-3.26,4.35-.48,7.69,1.56,10.72,4.64,1.46-1.69,2.83-3.25,4.17-4.83.42-.5.77-1.06,1.18-1.65-.33-.39-.56-.74-.86-1-5.7-4.71-12.19-6.38-19.4-4.68-8.83,2.08-14.58,9.3-14.67,18.18-.09,8.98,5.63,16.39,14.4,18.67.46.12.88.37,1.32.56h-42.5c.17-.87.49-1.75.49-2.62.03-11.07,0-22.14-.01-33.21,0-.63-.12-1.26-.19-1.94h-9.3v37.77h-37.5c.92-.32,1.84-.65,2.77-.97,3.81-1.33,6.76-3.52,7.86-7.66,1.21-4.54-.41-9.2-4.55-11.36-2.85-1.49-6.05-2.29-9.06-3.46-1.54-.6-3.08-1.24-4.53-2.02-.94-.5-1.31-1.51-1.18-2.58.14-1.12.93-1.82,1.97-2,1.13-.2,2.37-.44,3.43-.17,2.81.71,5.56,1.68,8.32,2.58.76.25,1.48.64,2.35,1.01,1.19-2.49,2.32-4.86,3.47-7.27-.72-.46-1.19-.8-1.69-1.07-5.26-2.78-10.91-3.52-16.73-2.88-3.1.34-5.92,1.53-8.29,3.73-3.97,3.66-4.65,12.54,2.28,15.89,1.49.72,3.06,1.3,4.63,1.83,2.05.69,4.17,1.18,6.2,1.91.99.35,2,.9,2.75,1.62,1.54,1.48,1.14,3.65-.82,4.5-.95.41-2.09.54-3.15.54-4.25.03-7.91-1.71-11.4-3.94-.67-.43-1.35-.85-2.2-1.39-1.24,2.48-2.39,4.76-3.55,7.08.45.42.71.74,1.04.96,3.19,2.2,6.62,3.83,10.46,4.54.72.13,1.41.4,2.12.6h-52c.3-.13.59-.31.91-.39,8.13-2.19,12.09-7.31,12.12-15.74.02-6.41.01-12.82,0-19.24,0-.79-.1-1.59-.15-2.42h-9.46v6.55c0,5.41.06,10.83-.02,16.24-.06,4.14-3.06,7.01-7.18,7.07-4.25.06-7.5-2.77-7.78-6.81-.05-.66-.03-1.33-.03-2,0-6.16,0-12.32,0-18.49,0-.81-.08-1.62-.13-2.55h-9.44c-.05.94-.12,1.75-.13,2.57-.02,4.41-.04,8.83,0,13.24.02,2.83-.01,5.67.26,8.48.62,6.34,4.6,10.95,10.71,12.72.78.23,1.55.51,2.33.77h-42c.17-.88.49-1.75.49-2.63.03-11.08,0-22.16-.01-33.25,0-.63-.13-1.26-.2-1.88h-10.11c-3.32,7.26-6.59,14.4-10.02,21.89-.51-.87-.84-1.34-1.07-1.84-.91-1.96-1.79-3.94-2.68-5.91-1.9-4.17-3.8-8.33-5.7-12.5-.37-.82-.58-1.79-1.79-1.79-3.06,0-6.12,0-9.28,0-.09.63-.2,1.02-.2,1.42.02,12.16.04,24.33.07,36.49h-61.5c.8-2.59.36-5.18.3-7.92h-7.05c-2.16,0-4.33.02-6.49,0-2.2-.03-4.43.16-6.53-.13v-7.18h17.49c.25-2.69.22-5.11-.08-7.77h-17.47v-7.07c6.56-.2,13,.06,19.52-.15v-7.55h-29.09c-.07.53-.17.93-.17,1.32.02,12.15.04,24.3.07,36.45h-29.5c.17-.87.49-1.75.49-2.63.03-11.08,0-22.16-.01-33.24,0-.63-.13-1.26-.19-1.89h-9.39v15.19c-4.17.46-13.17.31-15.17-.27v-14.93h-9.22c-.08.69-.19,1.25-.19,1.81-.02,9.5-.05,18.99-.03,28.49,0,2.49.14,4.99.21,7.48H21c.17-1.04.48-2.08.49-3.12.03-7.99,0-15.97,0-23.96,0-.88.08-1.76.13-2.75,3.84-.25,7.47.12,11.03-.22v-7.62c-.43-.1-.67-.21-.9-.21-9.65-.01-19.3-.04-28.95.02-.93,0-1.86.56-2.79.86Zm437.98-158.38c.19-.05.37-.11.56-.16.43.68.88,1.35,1.28,2.05,14.89,25.93,29.78,51.86,44.66,77.79,8.21,14.3,16.41,28.61,24.55,42.95.85,1.5,1.82,2.17,3.57,2.04,2.24-.16,4.5-.1,6.75-.1,17.75.01,35.5.01,53.25.09,1.64,0,2.54-.53,3.35-1.95,12.05-21.12,24.15-42.22,36.25-63.32,11.02-19.22,22.05-38.43,33.08-57.64.39-.68.85-1.31,1.27-1.96.14.05.28.1.43.15v12.39c0,4.17,0,8.33,0,12.5,0,4.17,0,8.33,0,12.5v49.75c0,4.17,0,8.33,0,12.5s0,8.33,0,12.5c0,4.12-.05,8.25.04,12.39h98.7V4.11h-121.47c-27.2,50.37-54.33,100.6-81.73,151.34-27.43-50.79-54.59-101.09-81.71-151.29-5.28-.52-119.82-.3-121.42.19v264.81h98.59v-124.53ZM760.83,3.96v265.23c2.59,0,4.99,0,7.39,0,78.15,0,156.3.01,234.45-.03,4.99,0,9.99-.22,14.96-.64,10.78-.91,21.16-3.52,31.05-7.97,10.78-4.86,19.8-12,26.86-21.43,4.1-5.48,7.14-11.62,9.41-18.11,2.35-6.72,3.76-13.64,4.44-20.7.72-7.41.63-14.81-.68-22.16-2.45-13.76-8.43-25.88-17.09-36.76-5.32-6.69-11.44-12.55-18.19-17.77-1.09-.84-2.16-1.7-3.28-2.58.63-.8,1.03-1.33,1.45-1.85,3.81-4.76,7.3-9.73,10.2-15.09,4.76-8.81,8.1-18.08,8.82-28.14.65-9.11-.09-18.14-2.2-27.03-3.79-15.97-12.7-28.07-27.43-35.59-9.31-4.75-19.33-7.11-29.66-8.33-6.96-.83-13.95-1.03-20.95-1.03-75.73.01-151.47,0-227.2,0-.74,0-1.48,0-2.37,0ZM2.12,4.05v83.16h113.59v181.63c.53.18.76.32.99.32,31.92.04,63.83.06,95.75.08.49,0,.99-.1,1.48-.16.07,0,.14-.09.2-.14.06-.05.12-.11.18-.17.02-.08.05-.16.05-.24.02-60,.05-119.99.07-179.99,0-.25.06-.49.09-.74.01-.08.04-.17.09-.23.04-.06.12-.1.5-.41h112.85c.04-.91.1-1.57.09-2.23-.04-26.83-.09-53.66-.14-80.49,0-.06-.1-.12-.16-.18-.06-.06-.12-.12-.21-.21H2.12Z"/>
      <path d="m1281,0c-1.19.22-2.38.44-3.58.66l-.02.18c.92.05,1.84.11,2.76.13,10.93.28,21.74,1.65,32.51,3.46,12.76,2.14,25.24,5.32,37.31,10.03,11.31,4.42,21.92,10.1,31.5,17.63,15.65,12.29,26.38,28.03,32.97,46.71,2.75,7.8,4.53,15.84,5.93,23.97.17.97.19,1.97.29,3.02-.35.04-.61.15-.78.08-2.65-1.18-5.44-1.37-8.3-1.36-40.33.04-80.66.03-120.99.04-1.58,0-3.17-.04-4.75,0-2.83.09-4.53,1.44-5.12,4.19-.24,1.13-.24,2.31-.25,3.48-.03,3.49-.01,6.98-.01,10.77-6.43.22-12.72.07-19.01.1-6.33.03-12.67,0-19,0h-18.75c-6.33,0-12.65,0-18.93,0-2.02,6.15-3.63,7.26-10.04,7.26-2.49,0-4.64-.54-6.72-2.11-3.25-2.45-6.96-2.73-10.57-.68-3.87,2.19-5.56,5.62-5.02,10.06.48,3.93,2.68,6.63,6.33,7.96,3.3,1.2,6.69,1.08,9.42-1.36,2.92-2.61,6.27-2.88,9.82-2.46,3.12.37,5.13,2.19,6.1,5.17.23.71.37,1.44.64,2.54,6.21,0,12.51,0,18.8,0,6.33,0,12.67,0,19,0h37.86c.06.83.15,1.47.15,2.1,0,3.33-.05,6.67-.04,10,.03,4.68,1.91,6.55,6.5,6.55,41.83,0,83.66.01,125.49-.06,2.68,0,5.37-.74,8.29-1.17-.24,1.56-.48,3.33-.78,5.09-2.5,14.65-6.95,28.62-14.51,41.5-10.12,17.23-24.45,29.94-42.07,39.12-14.61,7.6-30.18,12.29-46.29,15.37-10.81,2.07-21.71,3.35-32.69,4.15-14.56,1.06-29.13,1.28-43.71.71-19.09-.75-38.05-2.71-56.63-7.37-15.84-3.97-30.97-9.71-44.72-18.72-19.59-12.83-33.05-30.44-40.85-52.45-4.03-11.36-6.37-23.09-7.62-35.06-.89-8.55-1.33-17.12-1.19-25.7.26-15.95,1.83-31.75,6.26-47.16,3.99-13.91,10.04-26.79,19.1-38.17,10.82-13.59,24.47-23.45,40.16-30.62,14.03-6.4,28.77-10.44,43.93-13.04,10.68-1.83,21.42-3.16,32.26-3.56,1.38-.05,2.76,0,4.14-.24-1.02-.25-2.04-.5-3.06-.75,16.17,0,32.33,0,48.5,0Z"/>
      <path d="m212.5,340c-.03-12.16-.05-24.33-.07-36.49,0-.39.11-.79.2-1.42,3.15,0,6.21,0,9.28,0,1.21,0,1.42.97,1.79,1.79,1.9,4.16,3.8,8.33,5.7,12.5.9,1.97,1.77,3.95,2.68,5.91.23.51.56.97,1.07,1.84,3.43-7.48,6.69-14.62,10.02-21.89h10.11c.07.63.2,1.25.2,1.88.02,11.08.04,22.16.01,33.25,0,.88-.32,1.75-.49,2.63h-7.5c-.07-.74-.2-1.49-.21-2.23-.11-6.4-.2-12.8-.32-19.2,0-.41-.14-.81-.33-1.82-3,6.79-5.74,13-8.53,19.33-1.4,0-2.73-.09-4.04.02-1.57.14-2.38-.49-2.98-1.94-2.18-5.21-4.47-10.38-6.74-15.55-.24-.56-.6-1.06-.91-1.59-.15.04-.29.08-.44.13v22.85h-8.5Z"/>
      <path d="m1138.5,340c-.03-12.15-.05-24.31-.07-36.46,0-.4.1-.79.19-1.43,3.22,0,6.36,0,9.5,0,1.09,0,1.27.95,1.6,1.67,2.77,6.05,5.53,12.11,8.3,18.16.3.65.66,1.28,1.17,2.28,3.45-7.54,6.73-14.71,10.07-22h10.04c.07.67.19,1.3.19,1.93.02,11.07.04,22.15.01,33.22,0,.87-.32,1.75-.49,2.62h-7.5c-.07-.83-.21-1.65-.21-2.48-.01-4.99,0-9.97.02-14.96,0-1.86,0-3.73,0-5.59-.19-.04-.38-.08-.57-.12-3.11,6.26-5.52,12.84-8.62,19.24-1.15,0-2.23-.11-3.29.02-2.03.26-3.11-.49-3.9-2.46-2.04-5.09-4.32-10.07-6.53-15.09-.26-.59-.64-1.13-.97-1.69-.14.07-.29.14-.43.21v22.93h-8.5Z"/>
      <path d="m530.5,340c-.07-2.57-.21-5.15-.21-7.72-.01-9.4.01-18.8.03-28.19,0-.57.1-1.13.15-1.75.4-.09.71-.24,1.02-.23,6.56.12,13.13.13,19.69.45,2.01.1,4.13.75,5.94,1.67,5.91,2.99,6.23,10.85.73,14.52-.46.31-.93.62-1.53,1.03.66.37,1.16.65,1.66.93,3.45,1.94,5.04,4.96,5.02,8.84-.02,3.79-1.93,6.54-5.23,8.14-1.83.89-3.93,1.23-5.91,1.81-.62.18-1.24.34-1.86.52h-19.5Zm9.45-7.9c3.11,0,6.09.08,9.06-.03,2.29-.08,3.83-1.5,4.01-3.38.21-2.21-.86-3.66-3.32-4.24-3.19-.75-6.41-.27-9.74-.34v7.99Zm-.01-15.04c2.98,0,5.78.1,8.57-.03,1.89-.09,3.26-1.59,3.44-3.34.17-1.73-.93-3.33-2.88-3.8-3-.72-6.02-.3-9.13-.25v7.43Z"/>
      <path d="m1326,340c-.1-1.08-.3-2.15-.3-3.23-.02-10.66,0-21.33.01-31.99,0-.81.08-1.62.14-2.68,2.57,0,4.97-.12,7.35.07.74.06,1.56.88,2.07,1.55,4.69,6.16,9.32,12.38,13.97,18.57.53.71,1.07,1.41,2.09,1.96v-21.99h8.87c.07.56.21,1.19.21,1.82.01,11.16.02,22.33,0,33.49,0,.81-.26,1.62-.4,2.43h-7.5c-1.02-1.19-2.11-2.34-3.06-3.59-4.3-5.71-8.55-11.45-12.84-17.17-.41-.54-.91-1.02-1.77-1.98,0,1.47,0,2.28,0,3.09,0,5.57.02,11.14,0,16.71,0,.98-.21,1.96-.32,2.95h-8.5Z"/>
      <path d="m746,340c-.1-1.07-.3-2.15-.3-3.22-.02-10.66,0-21.31.01-31.97,0-.81.08-1.63.13-2.71,2.46,0,4.77,0,7.07,0,1.18,0,1.7.9,2.3,1.7,4.64,6.19,9.28,12.39,13.93,18.58.49.65,1.01,1.29,1.7,2.16.79-1.97.4-3.77.46-5.5.07-1.91-.03-3.83-.03-5.74,0-1.83.04-3.66.05-5.49,0-1.81,0-3.62,0-5.57h8.88c.07.62.21,1.25.21,1.87.01,11.16.02,22.31,0,33.47,0,.81-.26,1.62-.4,2.43h-8c-1.39-1.85-2.78-3.71-4.17-5.56-1.44-1.93-2.88-3.85-4.32-5.78-1.39-1.86-2.77-3.73-4.19-5.57-1.43-1.85-2.68-3.85-4.79-5.92,0,1.1,0,1.57,0,2.04,0,5.98.01,11.95-.04,17.93,0,.96-.32,1.91-.49,2.86h-8Z"/>
      <path d="m1088,340c-.61-.21-1.21-.46-1.84-.62-8.63-2.13-14.56-9.8-14.44-18.68.13-8.97,6.42-16.46,15.27-18.22,5.14-1.02,10.12-.61,14.86,1.72,6.93,3.42,10.83,10.26,10.29,17.94-.56,7.99-5.4,14.33-12.83,16.8-1.1.37-2.21.7-3.32,1.05h-8Zm4.1-29.95c-5.86-.01-10.61,4.88-10.63,10.93-.02,6.01,4.77,11.03,10.54,11.07,5.58.03,10.33-4.94,10.4-10.88.07-6.28-4.4-11.1-10.32-11.11Z"/>
      <path d="m58.5,340c-.07-2.49-.21-4.99-.21-7.48-.01-9.5.01-18.99.03-28.49,0-.56.12-1.12.19-1.81h9.22v14.93c2,.58,10.99.73,15.17.27v-15.19h9.39c.07.63.19,1.26.19,1.89.02,11.08.04,22.16.01,33.24,0,.88-.32,1.75-.49,2.63h-9c-.03-4.85-.06-9.7-.09-14.76-5.16.04-10.01-.24-15.08.17,0,3.97.02,7.69-.02,11.4-.01,1.06-.21,2.12-.32,3.19h-9Z"/>
      <path d="m809,340v-37.78h29.29c.26,2.41.09,4.83.08,7.6h-19.73v7.24h17.62v7.72h-17.6v7.28h20.1c0,2.87.41,5.41-.26,7.95h-29.5Z"/>
      <path d="m121.5,340c-.03-12.15-.05-24.3-.07-36.45,0-.4.1-.8.17-1.32h29.09v7.55c-6.52.22-12.96-.05-19.52.15v7.07h17.47c.3,2.66.33,5.08.08,7.77h-17.49v7.18c2.11.29,4.33.1,6.53.13,2.16.03,4.33,0,6.49,0h7.05c.06,2.73.5,5.32-.3,7.92h-29.5Z"/>
      <path d="m295,340c-.77-.26-1.54-.55-2.33-.77-6.11-1.76-10.1-6.38-10.71-12.72-.27-2.81-.24-5.65-.26-8.48-.04-4.41,0-8.83,0-13.24,0-.81.08-1.62.13-2.57h9.44c.05.94.13,1.75.13,2.55.01,6.16,0,12.32,0,18.49,0,.67-.02,1.33.03,2,.28,4.03,3.53,6.87,7.78,6.81,4.12-.06,7.12-2.94,7.18-7.07.08-5.41.02-10.83.02-16.24v-6.55h9.46c.06.83.15,1.62.15,2.42.01,6.41.02,12.82,0,19.24-.03,8.43-3.99,13.55-12.12,15.74-.32.09-.61.26-.91.39h-8Z"/>
      <path d="m1259.5,340c.53-1.48.98-3,1.6-4.44,4.43-10.31,8.9-20.61,13.35-30.92.36-.83.75-1.65,1.13-2.48h9.47c.26.47.59.95.81,1.46,4.75,11.26,9.5,22.52,14.23,33.79.35.84.61,1.72.91,2.58h-10c-.95-2.35-1.91-4.71-2.83-7h-16.28c-1,2.43-1.94,4.71-2.88,7h-9.5Zm15.3-14.67h10.48c-1.71-4.4-3.32-8.55-4.93-12.69-.18,0-.37,0-.55.01-1.62,4.12-3.25,8.23-5,12.68Z"/>
      <path d="m602.5,340c-.86-.28-1.71-.58-2.58-.83-6.15-1.8-10.34-6.74-10.53-13.09-.22-7.66-.06-15.33-.05-22.99,0-.23.14-.46.26-.84h9.1c.04.87.12,1.67.12,2.47,0,6.17,0,12.33,0,18.5,0,.75,0,1.5.08,2.25.37,3.65,3.08,6.32,6.69,6.58,4.2.31,7.1-1.64,8.02-5.52.28-1.2.35-2.47.35-3.71.03-6,0-12,.01-18,0-.81.07-1.62.11-2.58h9.21c.07.67.18,1.31.18,1.94.01,6.5.02,13,0,19.5,0,1-.04,2-.16,2.99-.81,6.58-4.44,10.76-10.77,12.66-.54.16-1.04.45-1.55.68h-8.5Z"/>
      <path d="m662,340c-.94-.3-1.86-.65-2.81-.88-3.77-.91-7.18-2.54-10.47-5.15,1.22-2.39,2.4-4.71,3.67-7.22.84.56,1.44.97,2.05,1.37,3.38,2.24,6.99,3.91,11.12,4.02,1.14.03,2.35-.11,3.42-.49,1.88-.67,2.43-2.74,1.12-4.25-.68-.78-1.66-1.41-2.64-1.79-1.78-.69-3.67-1.08-5.48-1.71-2.04-.71-4.14-1.34-6.02-2.37-6.82-3.76-5.86-12.45-1.45-16.12,2.26-1.88,4.86-2.98,7.71-3.28,5.55-.59,10.98-.04,16.08,2.46.8.39,1.53.91,2.44,1.47-1.23,2.57-2.36,4.93-3.56,7.45-3.38-1.79-6.62-3.32-10.21-3.73-1.28-.15-2.68-.1-3.91.26-2.25.65-2.65,2.93-.79,4.39.95.75,2.16,1.24,3.32,1.65,2.43.85,4.93,1.51,7.36,2.36,1.17.41,2.29.99,3.35,1.64,6.34,3.87,5.77,13.16.45,16.78-1.62,1.1-3.57,1.73-5.38,2.53-.6.26-1.25.41-1.88.6h-7.5Z"/>
      <path d="m355,340c-.7-.2-1.4-.47-2.12-.6-3.84-.71-7.27-2.35-10.46-4.54-.33-.23-.59-.54-1.04-.96,1.16-2.32,2.31-4.6,3.55-7.08.85.53,1.52.96,2.2,1.39,3.48,2.23,7.15,3.97,11.4,3.94,1.06,0,2.2-.13,3.15-.54,1.96-.85,2.35-3.02.82-4.5-.75-.72-1.76-1.26-2.75-1.62-2.03-.73-4.15-1.22-6.2-1.91-1.57-.53-3.14-1.11-4.63-1.83-6.93-3.35-6.25-12.22-2.28-15.89,2.37-2.19,5.19-3.39,8.29-3.73,5.82-.64,11.47.1,16.73,2.88.5.27.97.61,1.69,1.07-1.16,2.42-2.28,4.78-3.47,7.27-.86-.38-1.58-.76-2.35-1.01-2.76-.9-5.51-1.87-8.32-2.58-1.07-.27-2.31-.03-3.43.17-1.04.19-1.82.88-1.97,2-.14,1.07.24,2.07,1.18,2.58,1.45.78,2.99,1.43,4.53,2.02,3.02,1.17,6.22,1.97,9.06,3.46,4.14,2.17,5.75,6.82,4.55,11.36-1.1,4.15-4.05,6.33-7.86,7.66-.92.32-1.84.65-2.77.97h-7.5Z"/>
      <path d="m1208.5,340c-.03-12.16-.05-24.32-.07-36.48,0-.39.1-.79.2-1.45,7.14.2,14.19-.48,21.21.73,6.24,1.08,9.56,5.63,9.99,11.41.62,8.37-4.29,14.2-12.63,14.83-2.16.16-4.33.11-6.49.18-.81.02-1.62.09-2.72.15v10.63h-9.5Zm9.72-29.95v11.5c2.58,0,4.98.05,7.38-.03.72-.02,1.47-.29,2.14-.6,2.36-1.06,3.31-3.14,2.96-6.26-.28-2.51-1.69-4.31-4.2-4.56-2.7-.27-5.44-.06-8.29-.06Z"/>
      <path d="m932.5,340c-1.02-.3-2.03-.66-3.06-.9-3.7-.88-6.97-2.59-10.27-5.03,1.22-2.41,2.39-4.75,3.66-7.27.81.53,1.41.93,2.01,1.32,3.32,2.13,6.78,3.92,10.85,4.03.91.03,1.84,0,2.73-.16,1.28-.24,2.36-.85,2.67-2.28.29-1.35-.22-2.55-1.62-3.34-1-.57-2.11-.98-3.21-1.34-1.82-.59-3.69-1.02-5.5-1.62-1.34-.44-2.67-.95-3.93-1.58-7.51-3.82-6.52-13.22-1.2-16.99,1.95-1.38,4.1-2.3,6.42-2.6,6.51-.83,12.78-.06,18.52,3.43.13.08.2.26.45.61-1.08,2.25-2.21,4.61-3.4,7.11-.86-.39-1.5-.75-2.18-.98-2.83-.94-5.64-2.01-8.53-2.66-1.26-.29-2.83.05-4.07.57-1.63.69-1.86,2.46-.57,3.7.82.78,1.88,1.39,2.94,1.81,1.7.66,3.5,1.05,5.23,1.65,1.8.63,3.64,1.23,5.32,2.11,6.87,3.6,7.55,12.85,1.23,17.36-1.58,1.13-3.58,1.69-5.39,2.49-.52.23-1.07.37-1.61.56h-7.5Z"/>
      <path d="m876.5,340c-.76-.27-1.5-.62-2.28-.79-3.14-.67-6-1.97-8.69-3.66-.69-.43-1.29-.99-2.05-1.59,1.22-2.42,2.36-4.7,3.6-7.17.76.49,1.35.87,1.95,1.26,3.53,2.31,7.25,4.14,11.58,4.09,1.13-.01,2.36-.19,3.36-.68,1.81-.88,2.08-2.98.6-4.36-.76-.71-1.76-1.27-2.75-1.62-2.03-.73-4.15-1.2-6.19-1.91-1.8-.63-3.64-1.25-5.27-2.21-6.86-4.05-5.31-13.2-.55-16.49,2.11-1.45,4.42-2.41,6.91-2.69,6.35-.73,12.45.13,18.06,3.43.13.08.21.25.57.67-1.08,2.21-2.22,4.56-3.44,7.05-.85-.35-1.5-.67-2.19-.9-2.75-.91-5.48-1.92-8.29-2.64-1.14-.29-2.5-.11-3.66.22-2.24.63-2.66,2.92-.83,4.39.89.71,1.99,1.22,3.07,1.61,1.64.6,3.37.93,5,1.54,2.02.75,4.12,1.44,5.93,2.57,5.76,3.58,6.31,11.9,1.07,16.23-1.43,1.18-3.28,1.88-4.98,2.72-.8.4-1.68.61-2.53.91h-8Z"/>
      <path d="m1030,340c-.69-.23-1.38-.5-2.08-.68-7.15-1.81-12.69-8.31-13.58-15.64-1.89-15.74,12.58-24.51,25.4-20.91,4.12,1.15,6.96,2.83,9.32,5.6-.33.44-.66.91-1.03,1.34-1.39,1.64-2.8,3.28-4.29,5.01-.81-.71-1.46-1.33-2.17-1.88-3.13-2.45-6.6-3.56-10.51-2.32-5.81,1.85-8.64,8.34-6.4,14.5,2.01,5.54,8.16,8.2,13.74,5.8,1.88-.81,3.58-2.05,5.53-3.19,1.7,1.79,3.45,3.63,5.34,5.62-2.85,2.91-5.96,4.71-9.48,5.88-.77.26-1.52.57-2.29.86-2.5,0-5,0-7.5,0Z"/>
      <path d="m451.5,340c-.44-.19-.86-.44-1.32-.56-8.77-2.28-14.49-9.69-14.4-18.67.09-8.88,5.84-16.1,14.67-18.18,7.21-1.7,13.7-.03,19.4,4.68.31.25.53.61.86,1-.42.59-.76,1.15-1.18,1.65-1.34,1.58-2.7,3.14-4.17,4.83-3.03-3.08-6.37-5.12-10.72-4.64-2.5.27-4.6,1.39-6.29,3.26-3.82,4.22-3.71,11.16.26,15.26,3.36,3.46,9.53,5.13,16.77-1.18,1.79,1.9,3.6,3.8,5.57,5.89-2.78,2.62-5.71,4.57-9.17,5.71-.94.31-1.86.64-2.8.97h-7.5Z"/>
      <path d="m1399,340c0-3.16-.06-6.32,0-9.48.04-1.72-.36-3.23-1.2-4.74-3.81-6.92-7.54-13.88-11.3-20.84-.42-.78-.8-1.58-1.42-2.83,3.23,0,6.01-.1,8.78.08.59.04,1.26.97,1.64,1.64,2.46,4.34,4.85,8.72,7.27,13.08.19.35.42.68.81,1.29.55-.85,1.01-1.49,1.39-2.17,2.16-3.94,4.38-7.85,6.39-11.86.84-1.69,1.92-2.24,3.71-2.13,2.07.14,4.15.03,6.68.03-.42,1.06-.65,1.89-1.05,2.63-3.4,6.39-6.77,12.79-10.29,19.11-1.38,2.48-2.2,4.96-1.96,7.82.16,1.98.11,3.99.05,5.99-.02.8-.32,1.58-.49,2.37h-9Z"/>
      <path d="m0,303c.93-.3,1.86-.86,2.79-.86,9.65-.06,19.3-.03,28.95-.02.24,0,.47.11.9.21v7.62c-3.56.34-7.19-.03-11.03.22-.05.99-.13,1.87-.13,2.75,0,7.99.03,15.97,0,23.96,0,1.04-.32,2.08-.49,3.12h-9v-29.91H1.18c-.5-.88-.84-1.49-1.18-2.09,0-1.67,0-3.33,0-5Z"/>
      <path class="cls-1" d="m0,308c.34.61.69,1.22,1.18,2.09h10.82v29.91H0c0-10.67,0-21.33,0-32Z"/>
      <path d="m400,340v-37.77h9.3c.07.67.18,1.31.19,1.94.02,11.07.04,22.14.01,33.21,0,.87-.32,1.75-.49,2.62h-9Z"/>
      <path d="m707.5,340c-.07-2.49-.21-4.98-.21-7.46-.01-9.56.01-19.11.03-28.67,0-.48.1-.97.17-1.62h9.13c.08.63.22,1.26.22,1.89.01,11.14.02,22.27,0,33.41,0,.82-.21,1.63-.33,2.45h-9Z"/>
      <path class="cls-1" d="m1147,340v-22.93c.14-.07.29-.14.43-.21.33.56.71,1.1.97,1.69,2.21,5.02,4.49,10.01,6.53,15.09.79,1.97,1.87,2.72,3.9,2.46,1.06-.13,2.14-.02,3.29-.02,3.1-6.4,5.51-12.98,8.62-19.24.19.04.38.08.57.12,0,1.86,0,3.73,0,5.59,0,4.99-.03,9.97-.02,14.96,0,.83.14,1.65.21,2.48h-24.5Z"/>
      <path class="cls-1" d="m221,340v-22.85c.15-.04.29-.08.44-.13.3.53.66,1.03.91,1.59,2.27,5.18,4.56,10.34,6.74,15.55.6,1.45,1.41,2.07,2.98,1.94,1.31-.12,2.64-.02,4.04-.02,2.79-6.33,5.54-12.54,8.53-19.33.19,1.01.33,1.41.33,1.82.11,6.4.2,12.8.32,19.2.01.74.14,1.49.21,2.23h-24.5Z"/>
      <path class="cls-1" d="m67.5,340c.11-1.06.31-2.12.32-3.19.04-3.71.02-7.43.02-11.4,5.07-.41,9.91-.13,15.08-.17.03,5.05.06,9.9.09,14.76h-15.5Z"/>
      <path class="cls-1" d="m754,340c.17-.95.48-1.91.49-2.86.05-5.98.03-11.95.04-17.93,0-.47,0-.94,0-2.04,2.11,2.07,3.36,4.07,4.79,5.92,1.42,1.84,2.79,3.71,4.19,5.57,1.44,1.93,2.88,3.85,4.32,5.78,1.39,1.85,2.78,3.71,4.17,5.56h-18Z"/>
      <path class="cls-1" d="m1334.5,340c.11-.98.32-1.96.32-2.95.03-5.57.01-11.14,0-16.71,0-.81,0-1.63,0-3.09.87.96,1.36,1.44,1.77,1.98,4.28,5.72,8.54,11.46,12.84,17.17.94,1.25,2.03,2.4,3.06,3.59h-18Z"/>
      <path class="cls-1" d="m1269,340c.94-2.29,1.88-4.57,2.88-7h16.28c.93,2.29,1.88,4.64,2.83,7h-22Z"/>
      <path d="m437.98,144.62v124.53h-98.59V4.34c1.59-.49,116.13-.71,121.42-.19,27.11,50.21,54.28,100.51,81.71,151.29,27.4-50.74,54.52-100.97,81.73-151.34h121.47v264.97h-98.7c-.09-4.14-.03-8.27-.04-12.39,0-4.17,0-8.33,0-12.5s0-8.33,0-12.5v-49.75c0-4.17,0-8.33,0-12.5,0-4.17,0-8.33,0-12.5v-12.39c-.14-.05-.28-.1-.43-.15-.43.65-.88,1.29-1.27,1.96-11.03,19.21-22.06,38.43-33.08,57.64-12.1,21.1-24.2,42.19-36.25,63.32-.81,1.41-1.71,1.95-3.35,1.95-17.75-.08-35.5-.07-53.25-.09-2.25,0-4.51-.06-6.75.1-1.74.13-2.72-.54-3.57-2.04-8.15-14.34-16.35-28.65-24.55-42.95-14.88-25.94-29.77-51.86-44.66-77.79-.4-.7-.85-1.37-1.28-2.05-.19.05-.37.11-.56.16Z"/>
      <path d="m760.83,3.96c.89,0,1.63,0,2.37,0,75.73,0,151.47.02,227.2,0,7,0,13.99.2,20.95,1.03,10.32,1.23,20.35,3.58,29.66,8.33,14.73,7.52,23.64,19.62,27.43,35.59,2.11,8.89,2.85,17.92,2.2,27.03-.72,10.06-4.06,19.34-8.82,28.14-2.9,5.36-6.39,10.34-10.2,15.09-.41.52-.82,1.04-1.45,1.85,1.12.88,2.19,1.74,3.28,2.58,6.75,5.22,12.87,11.08,18.19,17.77,8.66,10.88,14.64,23,17.09,36.76,1.31,7.35,1.4,14.75.68,22.16-.68,7.06-2.09,13.98-4.44,20.7-2.27,6.5-5.31,12.63-9.41,18.11-7.06,9.44-16.08,16.58-26.86,21.43-9.89,4.46-20.27,7.06-31.05,7.97-4.97.42-9.97.64-14.96.64-78.15.04-156.3.03-234.45.03-2.4,0-4.8,0-7.39,0V3.96Zm98.69,193.13c1.02,0,1.75,0,2.49,0,37.16,0,74.33.01,111.49-.02,2.24,0,4.5-.2,6.7-.58,7.26-1.26,10.9-5.58,11.05-12.9.16-7.68-3.48-12.27-11.08-13.61-2.86-.51-5.79-.75-8.69-.75-36.58-.05-73.16-.03-109.74-.02-.72,0-1.44.1-2.23.16v27.73Zm0-100c1.1,0,1.92,0,2.75,0,30.16,0,60.32,0,90.48,0,1.58,0,3.19.08,4.74-.15,2.38-.35,4.79-.72,7.06-1.48,3.81-1.28,6.24-4.02,7.19-7.98.75-3.13.75-6.27,0-9.4-.93-3.86-3.32-6.48-6.97-7.91-1.39-.54-2.86-1.03-4.33-1.14-4.98-.37-9.97-.78-14.95-.79-27.91-.07-55.82-.03-83.73-.02-.72,0-1.44.1-2.22.16v28.72Z"/>
      <path d="m2.12,4.05h325.43c.09.1.15.15.21.21.06.06.16.12.16.18.05,26.83.1,53.66.14,80.49,0,.66-.05,1.32-.09,2.23h-112.85c-.38.3-.45.34-.5.41-.05.07-.08.15-.09.23-.04.24-.09.49-.09.74-.03,60-.05,119.99-.07,179.99,0,.08-.03.16-.05.24-.06.06-.12.12-.18.17-.06.05-.13.13-.2.14-.49.06-.99.16-1.48.16-31.92-.02-63.83-.04-95.75-.08-.23,0-.46-.15-.99-.32V87.21H2.12V4.05Z"/>
      <path class="cls-1" d="m539.95,332.1v-7.99c3.33.07,6.55-.41,9.74.34,2.46.58,3.53,2.03,3.32,4.24-.17,1.87-1.72,3.29-4.01,3.38-2.97.11-5.95.03-9.06.03Z"/>
      <path class="cls-1" d="m539.94,317.06v-7.43c3.11-.05,6.13-.47,9.13.25,1.95.47,3.05,2.07,2.88,3.8-.18,1.76-1.54,3.25-3.44,3.34-2.79.13-5.58.03-8.57.03Z"/>
      <path class="cls-1" d="m1092.1,310.05c5.92.01,10.39,4.83,10.32,11.11-.07,5.95-4.82,10.92-10.4,10.88-5.78-.04-10.56-5.06-10.54-11.07.02-6.05,4.77-10.95,10.63-10.93Z"/>
      <path class="cls-1" d="m1274.8,325.33c1.75-4.45,3.38-8.56,5-12.68.18,0,.37,0,.55-.01,1.61,4.15,3.22,8.29,4.93,12.69h-10.48Z"/>
      <path class="cls-1" d="m1218.22,310.05c2.85,0,5.59-.21,8.29.06,2.51.25,3.91,2.04,4.2,4.56.35,3.12-.6,5.19-2.96,6.26-.67.3-1.42.57-2.14.6-2.4.07-4.8.03-7.38.03v-11.5Z"/>
      <path class="cls-1" d="m859.52,197.08v-27.73c.79-.06,1.51-.16,2.23-.16,36.58-.01,73.16-.03,109.74.02,2.9,0,5.84.25,8.69.75,7.6,1.34,11.24,5.93,11.08,13.61-.15,7.32-3.79,11.64-11.05,12.9-2.2.38-4.47.58-6.7.58-37.16.03-74.33.02-111.49.02-.74,0-1.48,0-2.49,0Z"/>
      <path class="cls-1" d="m859.52,97.08v-28.72c.78-.06,1.5-.16,2.22-.16,27.91-.01,55.82-.05,83.73.02,4.99.01,9.98.42,14.95.79,1.47.11,2.94.6,4.33,1.14,3.66,1.42,6.04,4.05,6.97,7.91.76,3.13.76,6.27,0,9.4-.95,3.96-3.38,6.7-7.19,7.98-2.26.76-4.68,1.13-7.06,1.48-1.55.23-3.16.15-4.74.15-30.16,0-60.32,0-90.48,0-.82,0-1.65,0-2.75,0Z"/>
    </g>
  </g>
</svg>